<svg width="512" height="512" viewBox="0 0 512 512" fill="none" xmlns="http://www.w3.org/2000/svg">
  <!-- Background Circle with Gradient -->
  <circle cx="256" cy="256" r="256" fill="url(#gradient)"/>
  
  <!-- Book Icon -->
  <path d="M140 140h232c13.3 0 24 10.7 24 24v184c0 13.3-10.7 24-24 24H140c-13.3 0-24-10.7-24-24V164c0-13.3 10.7-24 24-24z" fill="white" opacity="0.9"/>
  <path d="M256 140v232" stroke="white" stroke-width="8" stroke-linecap="round"/>
  
  <!-- Star (achievement) -->
  <path d="M380 120l12 36h38l-31 22 12 36-31-22-31 22 12-36-31-22h38z" fill="#FFD700"/>
  
  <!-- Gradient Definition -->
  <defs>
    <linearGradient id="gradient" x1="0%" y1="0%" x2="100%" y2="100%">
      <stop offset="0%" style="stop-color:#FF6B9D;stop-opacity:1" />
      <stop offset="100%" style="stop-color:#FFA94D;stop-opacity:1" />
    </linearGradient>
  </defs>
</svg>
